# xmcd
#
# Track frame offsets:
#	150
#	22878
#	43070
#	66744
#	92808
#	111682
#	130463
#	144491
#	160611
#	178973
#	198415
#	218770
#	240654
#	260351
#	283791
#	301861
#
# Disc length: 4386
#
# Revision: 2
# Processed by: cddbd v1.5.1PL0 Copyright (c) Steve Scherf et al.
# Submitted via: Axialis_AX_CDPlayer 2.6
# Normalized: r1:TDELIM( - )
#
DISCID=f5112010
DTITLE=A.A.V.V. - Technodome 8
DYEAR=2004
DGENRE=Hardstyle
TTITLE0=Tnt - "Freakuency"
TTITLE1=Droid - "No Tales"
TTITLE2=Hardstyle Masterz - "Beat Diz"
TTITLE3=The Hose - "Loudness"
TTITLE4=The Raiders - "Salamandra"
TTITLE5=Pavo and Zany - "Big Fat Bass"
TTITLE6=D.J. Duro - "Cocaine"
TTITLE7=Jimmy The Sound - "Modulo (Rmx)"
TTITLE8=Luca Antolini D.J. - "Secret Dream"
TTITLE9=Base - "Ready"
TTITLE10=Bronski Beat - "Smalltown Boy (Luca Antolini D.J. Rmx)"
TTITLE11=D.J. Gius - "Mega What"
TTITLE12=Mazza and Martinelli - "Kiss That Sound"
TTITLE13=Pacific Link - "Time For A New Energy"
TTITLE14=Builder - "Doberman"
TTITLE15=Attack - "Panik"
EXTD=Mixed by Technoboy and Luca Antolini D.J.
EXTT0=
EXTT1=
EXTT2=
EXTT3=
EXTT4=
EXTT5=
EXTT6=
EXTT7=
EXTT8=
EXTT9=
EXTT10=
EXTT11=
EXTT12=
EXTT13=
EXTT14=
EXTT15=
PLAYORDER=
